<mxfile host="app.diagrams.net" modified="2024-06-24T02:21:12.515Z" agent="Mozilla/5.0 (Windows NT 10.0; Win64; x64) AppleWebKit/537.36 (KHTML, like Gecko) Chrome/126.0.0.0 Safari/537.36" version="24.6.2" etag="leg7I4Q5voT8_vPw_ef6" type="github">
  <diagram name="ページ1" id="-t0eHfLH79bHNx5dsGXn">
    <mxGraphModel>
      <root>
        <mxCell id="0" />
        <mxCell id="1" parent="0" />
      </root>
    </mxGraphModel>
  </diagram>
</mxfile>
